<mxfile host="drawio-plugin" modified="2022-06-25T08:03:12.995Z" agent="5.0 (Windows NT 6.2; Win64; x64) AppleWebKit/537.36 (KHTML, like Gecko) Chrome/97.0.4692.45 Safari/537.36" etag="yytfq-3g8rTYozQ98EK0" version="15.5.4" type="embed"><diagram id="C5RBs43oDa-KdzZeNtuy" name="Page-1"><mxGraphModel dx="1183" dy="855" grid="1" gridSize="10" guides="1" tooltips="1" connect="1" arrows="1" fold="1" page="1" pageScale="1" pageWidth="413" pageHeight="583" background="#FFFFFF" math="0" shadow="0"><root><mxCell id="WIyWlLk6GJQsqaUBKTNV-0"/><mxCell id="WIyWlLk6GJQsqaUBKTNV-1" parent="WIyWlLk6GJQsqaUBKTNV-0"/><mxCell id="eqK-4YGPvcyfRgQq-mic-13" value="Classifica " style="swimlane;fontStyle=1;align=center;verticalAlign=top;childLayout=stackLayout;horizontal=1;startSize=26;horizontalStack=0;resizeParent=1;resizeParentMax=0;resizeLast=0;collapsible=1;marginBottom=0;fillColor=#f5f5f5;fontColor=#333333;strokeColor=#666666;" parent="WIyWlLk6GJQsqaUBKTNV-1" vertex="1"><mxGeometry x="100" y="100" width="320" height="232" as="geometry"><mxRectangle x="450" y="120" width="90" height="26" as="alternateBounds"/></mxGeometry></mxCell><mxCell id="eqK-4YGPvcyfRgQq-mic-14" value="- field: Squadre[]" style="text;align=left;verticalAlign=top;spacingLeft=4;spacingRight=4;overflow=hidden;rotatable=0;points=[[0,0.5],[1,0.5]];portConstraint=eastwest;labelBackgroundColor=none;labelBorderColor=none;fillColor=#f5f5f5;fontColor=#333333;strokeColor=#666666;" parent="eqK-4YGPvcyfRgQq-mic-13" vertex="1"><mxGeometry y="26" width="320" height="26" as="geometry"/></mxCell><mxCell id="eqK-4YGPvcyfRgQq-mic-16" value="+ method(type):&#10;+ esitoPartita(squadraCasa, generatoreDiGoalRandom(), &#10;quadraOspite, generatoreDiGoalRandom())&#10;&#10;+ Squadre [] getClassifica()&#10;&#10;+ Squadra getMigliorAttacco()&#10;&#10;+ Squadra getPeggiorDifesa()&#10;&#10;- int generatoreDiGoalRandom()" style="text;align=left;verticalAlign=top;spacingLeft=4;spacingRight=4;overflow=hidden;rotatable=0;points=[[0,0.5],[1,0.5]];portConstraint=eastwest;fontColor=#333333;fillColor=#f5f5f5;strokeColor=#666666;" parent="eqK-4YGPvcyfRgQq-mic-13" vertex="1"><mxGeometry y="52" width="320" height="180" as="geometry"/></mxCell><mxCell id="eqK-4YGPvcyfRgQq-mic-26" style="rounded=0;orthogonalLoop=1;jettySize=auto;html=1;entryX=1.003;entryY=0.393;entryDx=0;entryDy=0;entryPerimeter=0;verticalAlign=middle;edgeStyle=orthogonalEdgeStyle;shape=link;fillColor=#f5f5f5;strokeColor=#666666;" parent="WIyWlLk6GJQsqaUBKTNV-1" source="eqK-4YGPvcyfRgQq-mic-18" target="eqK-4YGPvcyfRgQq-mic-16" edge="1"><mxGeometry relative="1" as="geometry"/></mxCell><mxCell id="eqK-4YGPvcyfRgQq-mic-18" value="Squadra" style="swimlane;fontStyle=1;align=center;verticalAlign=top;childLayout=stackLayout;horizontal=1;startSize=26;horizontalStack=0;resizeParent=1;resizeParentMax=0;resizeLast=0;collapsible=1;marginBottom=0;labelBackgroundColor=none;labelBorderColor=none;fillColor=#f5f5f5;fontColor=#333333;strokeColor=#666666;" parent="WIyWlLk6GJQsqaUBKTNV-1" vertex="1"><mxGeometry x="490" y="100" width="200" height="202" as="geometry"><mxRectangle x="410" y="40" width="80" height="26" as="alternateBounds"/></mxGeometry></mxCell><mxCell id="eqK-4YGPvcyfRgQq-mic-19" value="- ID: String&#10;- nome: String&#10;- rosa: Giocatori[]&#10;- punti: int&#10;- golFatti: int&#10;- golSubiti: int" style="text;strokeColor=#666666;fillColor=#f5f5f5;align=left;verticalAlign=top;spacingLeft=4;spacingRight=4;overflow=hidden;rotatable=0;points=[[0,0.5],[1,0.5]];portConstraint=eastwest;fontColor=#333333;" parent="eqK-4YGPvcyfRgQq-mic-18" vertex="1"><mxGeometry y="26" width="200" height="94" as="geometry"/></mxCell><mxCell id="eqK-4YGPvcyfRgQq-mic-21" value="+ method(type): type&#10;+setPunti(int puntiFatti)&#10;+setGoalFatti(int goalFatti)&#10;+setGoalSubiti(int goalSubiti)&#10;+newGiocatoreInRosa(Giocatore)" style="text;strokeColor=#666666;fillColor=#f5f5f5;align=left;verticalAlign=top;spacingLeft=4;spacingRight=4;overflow=hidden;rotatable=0;points=[[0,0.5],[1,0.5]];portConstraint=eastwest;fontColor=#333333;" parent="eqK-4YGPvcyfRgQq-mic-18" vertex="1"><mxGeometry y="120" width="200" height="82" as="geometry"/></mxCell><mxCell id="eqK-4YGPvcyfRgQq-mic-30" style="edgeStyle=orthogonalEdgeStyle;shape=link;rounded=0;orthogonalLoop=1;jettySize=auto;html=1;entryX=0.486;entryY=1.005;entryDx=0;entryDy=0;entryPerimeter=0;strokeColor=#666666;fillColor=#f5f5f5;" parent="WIyWlLk6GJQsqaUBKTNV-1" source="eqK-4YGPvcyfRgQq-mic-22" target="eqK-4YGPvcyfRgQq-mic-21" edge="1"><mxGeometry relative="1" as="geometry"/></mxCell><mxCell id="eqK-4YGPvcyfRgQq-mic-22" value="Giocatore" style="swimlane;fontStyle=1;align=center;verticalAlign=top;childLayout=stackLayout;horizontal=1;startSize=26;horizontalStack=0;resizeParent=1;resizeParentMax=0;resizeLast=0;collapsible=1;marginBottom=0;fillColor=#f5f5f5;fontColor=#333333;strokeColor=#666666;" parent="WIyWlLk6GJQsqaUBKTNV-1" vertex="1"><mxGeometry x="520" y="410" width="160" height="90" as="geometry"><mxRectangle x="460" y="280" width="90" height="26" as="alternateBounds"/></mxGeometry></mxCell><mxCell id="eqK-4YGPvcyfRgQq-mic-23" value="- ID: String&#10;- nome: String&#10;- cognome: String" style="text;strokeColor=#666666;fillColor=#f5f5f5;align=left;verticalAlign=top;spacingLeft=4;spacingRight=4;overflow=hidden;rotatable=0;points=[[0,0.5],[1,0.5]];portConstraint=eastwest;fontColor=#333333;" parent="eqK-4YGPvcyfRgQq-mic-22" vertex="1"><mxGeometry y="26" width="160" height="64" as="geometry"/></mxCell><mxCell id="eqK-4YGPvcyfRgQq-mic-28" value="20" style="text;html=1;align=center;verticalAlign=middle;resizable=0;points=[];autosize=1;fillColor=none;fontColor=#333333;strokeColor=none;" parent="WIyWlLk6GJQsqaUBKTNV-1" vertex="1"><mxGeometry x="464" y="180" width="30" height="20" as="geometry"/></mxCell><mxCell id="eqK-4YGPvcyfRgQq-mic-29" value="1" style="text;html=1;align=center;verticalAlign=middle;resizable=0;points=[];autosize=1;fillColor=none;fontColor=#333333;strokeColor=none;" parent="WIyWlLk6GJQsqaUBKTNV-1" vertex="1"><mxGeometry x="420" y="206" width="20" height="20" as="geometry"/></mxCell><mxCell id="eqK-4YGPvcyfRgQq-mic-31" value="1,2..." style="text;html=1;align=center;verticalAlign=middle;resizable=0;points=[];autosize=1;fillColor=none;fontColor=#333333;strokeColor=none;" parent="WIyWlLk6GJQsqaUBKTNV-1" vertex="1"><mxGeometry x="600" y="390" width="40" height="20" as="geometry"/></mxCell><mxCell id="eqK-4YGPvcyfRgQq-mic-32" value="1" style="text;html=1;align=center;verticalAlign=middle;resizable=0;points=[];autosize=1;fillColor=none;fontColor=#333333;strokeColor=none;" parent="WIyWlLk6GJQsqaUBKTNV-1" vertex="1"><mxGeometry x="590" y="302" width="20" height="20" as="geometry"/></mxCell></root></mxGraphModel></diagram></mxfile>